<?xml version="1.0" encoding="utf-8"?>
<!-- Generator: Adobe Illustrator 23.1.1, SVG Export Plug-In . SVG Version: 6.00 Build 0)  -->
<svg version="1.1" id="Layer_1" xmlns="http://www.w3.org/2000/svg" xmlns:xlink="http://www.w3.org/1999/xlink" x="0px" y="0px"
	 viewBox="0 0 40 40" style="enable-background:new 0 0 40 40;" xml:space="preserve" fill="currentcolor">
<path id="close-icon_1_" d="M34.1,31.8L22.4,20L34.1,8.2c0.7-0.7,0.7-1.7,0-2.4c-0.7-0.7-1.7-0.7-2.4,0L20,17.6L8.2,5.9
	c-0.7-0.7-1.7-0.7-2.4,0s-0.7,1.7,0,2.4L17.6,20L5.9,31.8c-0.7,0.7-0.7,1.7,0,2.4s1.7,0.7,2.4,0L20,22.4l11.8,11.8
	c0.7,0.7,1.7,0.7,2.4,0C34.8,33.5,34.8,32.4,34.1,31.8z"/>
</svg>
