<?xml version="1.0" encoding="utf-8"?>
<!-- Generator: Adobe Illustrator 23.1.1, SVG Export Plug-In . SVG Version: 6.00 Build 0)  -->
<svg version="1.1" id="Layer_1" xmlns="http://www.w3.org/2000/svg" xmlns:xlink="http://www.w3.org/1999/xlink" x="0px" y="0px"
	 viewBox="0 0 1000 230" style="enable-background:new 0 0 1000 230;" xml:space="preserve">
<style type="text/css">
	.st0{fill:#FFFFFF;}
</style>
<g id="slot_3_">
	<g>
		<g>
			<path class="st0" d="M963,222.9L963,222.9L963,222.9c-3.3,0-5.9-2.6-5.9-5.9l0,0c0-3.2,2.6-5.9,5.9-5.9l0,0l0,0l0,0l0,0l0,0
				c3.2,0,5.9,2.6,5.9,5.8l0,0C969,220.2,966.4,222.8,963,222.9L963,222.9C963.1,222.9,963.1,222.9,963,222.9L963,222.9
				C963.1,222.9,963.1,222.9,963,222.9z M924.1,217c0-3.2,2.6-5.9,5.9-5.9l0,0c3.2,0,5.9,2.6,5.9,5.9l0,0c0,3.2-2.6,5.9-5.9,5.9l0,0
				C926.7,222.9,924.1,220.2,924.1,217z M891,217c0-3.2,2.6-5.9,5.9-5.9l0,0c3.2,0,5.9,2.6,5.9,5.9l0,0c0,3.2-2.6,5.9-5.9,5.9l0,0
				C893.6,222.9,891,220.2,891,217z M857.9,217c0-3.2,2.6-5.9,5.9-5.9l0,0c3.2,0,5.9,2.6,5.9,5.9l0,0c0,3.2-2.6,5.9-5.9,5.9l0,0
				C860.6,222.9,857.9,220.2,857.9,217z M824.9,217c0-3.2,2.6-5.9,5.9-5.9l0,0c3.2,0,5.9,2.6,5.9,5.9l0,0c0,3.2-2.6,5.9-5.9,5.9l0,0
				C827.5,222.9,824.9,220.2,824.9,217z M791.8,217c0-3.2,2.6-5.9,5.9-5.9l0,0c3.2,0,5.9,2.6,5.9,5.9l0,0c0,3.2-2.6,5.9-5.9,5.9l0,0
				C794.4,222.9,791.8,220.2,791.8,217z M758.7,217c0-3.2,2.6-5.9,5.9-5.9l0,0c3.2,0,5.9,2.6,5.9,5.9l0,0c0,3.2-2.6,5.9-5.9,5.9l0,0
				C761.4,222.9,758.7,220.2,758.7,217z M725.7,217c0-3.2,2.6-5.9,5.9-5.9l0,0c3.2,0,5.9,2.6,5.9,5.9l0,0c0,3.2-2.6,5.9-5.9,5.9l0,0
				C728.3,222.9,725.7,220.2,725.7,217z M692.6,217c0-3.2,2.6-5.9,5.9-5.9l0,0c3.2,0,5.9,2.6,5.9,5.9l0,0c0,3.2-2.6,5.9-5.9,5.9l0,0
				C695.2,222.9,692.6,220.2,692.6,217z M659.5,217c0-3.2,2.6-5.9,5.9-5.9l0,0c3.2,0,5.9,2.6,5.9,5.9l0,0c0,3.2-2.6,5.9-5.9,5.9l0,0
				C662.1,222.9,659.5,220.2,659.5,217z M626.5,217c0-3.2,2.6-5.9,5.9-5.9l0,0c3.2,0,5.9,2.6,5.9,5.9l0,0c0,3.2-2.6,5.9-5.9,5.9l0,0
				C629.1,222.9,626.5,220.2,626.5,217z M593.4,217c0-3.2,2.6-5.9,5.9-5.9l0,0c3.2,0,5.9,2.6,5.9,5.9l0,0c0,3.2-2.6,5.9-5.9,5.9l0,0
				C596,222.9,593.4,220.2,593.4,217z M560.3,217c0-3.2,2.6-5.9,5.9-5.9l0,0c3.2,0,5.9,2.6,5.9,5.9l0,0c0,3.2-2.6,5.9-5.9,5.9l0,0
				C562.9,222.9,560.3,220.2,560.3,217z M527.3,217c0-3.2,2.6-5.9,5.9-5.9l0,0c3.2,0,5.9,2.6,5.9,5.9l0,0c0,3.2-2.6,5.9-5.9,5.9l0,0
				C529.9,222.9,527.3,220.2,527.3,217z M494.2,217c0-3.2,2.6-5.9,5.9-5.9l0,0c3.2,0,5.9,2.6,5.9,5.9l0,0c0,3.2-2.6,5.9-5.9,5.9l0,0
				C496.8,222.9,494.2,220.2,494.2,217z M461.1,217c0-3.2,2.6-5.9,5.9-5.9l0,0c3.2,0,5.9,2.6,5.9,5.9l0,0c0,3.2-2.6,5.9-5.9,5.9l0,0
				C463.7,222.9,461.1,220.2,461.1,217z M428,217c0-3.2,2.6-5.9,5.9-5.9l0,0c3.2,0,5.9,2.6,5.9,5.9l0,0c0,3.2-2.6,5.9-5.9,5.9l0,0
				C430.7,222.9,428,220.2,428,217z M395,217c0-3.2,2.6-5.9,5.9-5.9l0,0c3.2,0,5.9,2.6,5.9,5.9l0,0c0,3.2-2.6,5.9-5.9,5.9l0,0
				C397.6,222.9,395,220.2,395,217z M361.9,217c0-3.2,2.6-5.9,5.9-5.9l0,0c3.2,0,5.9,2.6,5.9,5.9l0,0c0,3.2-2.6,5.9-5.9,5.9l0,0
				C364.5,222.9,361.9,220.2,361.9,217z M328.8,217c0-3.2,2.6-5.9,5.9-5.9l0,0c3.2,0,5.9,2.6,5.9,5.9l0,0c0,3.2-2.6,5.9-5.9,5.9l0,0
				C331.5,222.9,328.8,220.2,328.8,217z M295.8,217c0-3.2,2.6-5.9,5.9-5.9l0,0c3.2,0,5.9,2.6,5.9,5.9l0,0c0,3.2-2.6,5.9-5.9,5.9l0,0
				C298.4,222.9,295.8,220.2,295.8,217z M262.7,217c0-3.2,2.6-5.9,5.9-5.9l0,0c3.2,0,5.9,2.6,5.9,5.9l0,0c0,3.2-2.6,5.9-5.9,5.9l0,0
				C265.3,222.9,262.7,220.2,262.7,217z M229.6,217c0-3.2,2.6-5.9,5.9-5.9l0,0c3.2,0,5.9,2.6,5.9,5.9l0,0c0,3.2-2.6,5.9-5.9,5.9l0,0
				C232.3,222.9,229.6,220.2,229.6,217z M196.6,217c0-3.2,2.6-5.9,5.9-5.9l0,0c3.2,0,5.9,2.6,5.9,5.9l0,0c0,3.2-2.6,5.9-5.9,5.9l0,0
				C199.2,222.9,196.6,220.2,196.6,217z M163.5,217c0-3.2,2.6-5.9,5.9-5.9l0,0c3.2,0,5.9,2.6,5.9,5.9l0,0c0,3.2-2.6,5.9-5.9,5.9l0,0
				C166.1,222.9,163.5,220.2,163.5,217z M130.4,217c0-3.2,2.6-5.9,5.9-5.9l0,0c3.2,0,5.9,2.6,5.9,5.9l0,0c0,3.2-2.6,5.9-5.9,5.9l0,0
				C133.1,222.9,130.4,220.2,130.4,217z M97.4,217c0-3.2,2.6-5.9,5.9-5.9l0,0c3.2,0,5.9,2.6,5.9,5.9l0,0c0,3.2-2.6,5.9-5.9,5.9l0,0
				C100,222.9,97.4,220.2,97.4,217z M64.3,217c0-3.2,2.6-5.9,5.9-5.9l0,0c3.2,0,5.9,2.6,5.9,5.9l0,0c0,3.2-2.6,5.9-5.9,5.9l0,0
				C66.9,222.9,64.3,220.2,64.3,217z M31.2,217c0-3.2,2.6-5.9,5.9-5.9l0,0c3.2,0,5.9,2.6,5.9,5.9l0,0c0,3.2-2.6,5.9-5.9,5.9l0,0
				C33.9,222.9,31.2,220.2,31.2,217z M7.7,198.9c-0.6-3.2,1.4-6.3,4.6-6.9l0,0c3.2-0.6,6.3,1.4,6.9,4.6l0,0c0.6,3.2-1.4,6.3-4.6,6.9
				l0,0c-0.4,0.1-0.8,0.1-1.1,0.1l0,0C10.7,203.6,8.3,201.6,7.7,198.9z M985.5,203.3c-3.2-0.6-5.3-3.7-4.7-6.9l0,0
				c0.6-3.2,3.7-5.3,6.9-4.7l0,0c3.2,0.6,5.3,3.7,4.7,6.9l0,0c-0.5,2.8-3,4.8-5.8,4.8l0,0C986.2,203.4,985.8,203.3,985.5,203.3z
				 M7.1,164.7c0-3.2,2.6-5.9,5.9-5.9l0,0c3.2,0,5.9,2.6,5.9,5.9l0,0c0,3.2-2.6,5.9-5.9,5.9l0,0C9.8,170.5,7.1,167.9,7.1,164.7z
				 M981.1,164.5c0-3.2,2.6-5.9,5.9-5.9l0,0c3.2,0,5.9,2.6,5.9,5.9l0,0c0,3.2-2.6,5.9-5.9,5.9l0,0
				C983.8,170.3,981.1,167.7,981.1,164.5z M7.1,131.6c0-3.2,2.6-5.9,5.9-5.9l0,0c3.2,0,5.9,2.6,5.9,5.9l0,0c0,3.2-2.6,5.9-5.9,5.9
				l0,0C9.8,137.5,7.1,134.8,7.1,131.6z M981.1,131.4c0-3.2,2.6-5.9,5.9-5.9l0,0c3.2,0,5.9,2.6,5.9,5.9l0,0c0,3.2-2.6,5.9-5.9,5.9
				l0,0C983.8,137.3,981.1,134.6,981.1,131.4z M7.1,98.5c0-3.2,2.6-5.9,5.9-5.9l0,0c3.2,0,5.9,2.6,5.9,5.9l0,0
				c0,3.2-2.6,5.9-5.9,5.9l0,0C9.8,104.4,7.1,101.8,7.1,98.5z M981.1,98.3c0-3.2,2.6-5.9,5.9-5.9l0,0c3.2,0,5.9,2.6,5.9,5.9l0,0
				c0,3.2-2.6,5.9-5.9,5.9l0,0C983.8,104.2,981.1,101.6,981.1,98.3z M7.1,65.5c0-3.2,2.6-5.9,5.9-5.9l0,0c3.2,0,5.9,2.6,5.9,5.9l0,0
				c0,3.2-2.6,5.9-5.9,5.9l0,0C9.8,71.3,7.1,68.7,7.1,65.5z M981.1,65.3c0-3.2,2.6-5.9,5.9-5.9l0,0c3.2,0,5.9,2.6,5.9,5.9l0,0
				c0,3.2-2.6,5.9-5.9,5.9l0,0C983.8,71.1,981.1,68.5,981.1,65.3z M12.3,38.2c-3.2-0.6-5.3-3.7-4.6-6.9l0,0c0.6-3.2,3.7-5.3,6.9-4.6
				l0,0c3.2,0.6,5.3,3.7,4.7,6.9l0,0c-0.5,2.8-3,4.8-5.7,4.8l0,0C13.1,38.3,12.7,38.3,12.3,38.2z M980.8,33.4
				c-0.6-3.2,1.4-6.3,4.6-6.9l0,0c3.2-0.6,6.3,1.4,6.9,4.6l0,0c0.6,3.2-1.4,6.3-4.6,6.9l0,0c-0.4,0.1-0.8,0.1-1.2,0.1l0,0
				C983.8,38.1,981.3,36.2,980.8,33.4z M31.1,13c0-3.2,2.6-5.9,5.9-5.9l0,0c3.2,0,5.9,2.6,5.9,5.9l0,0c0,3.2-2.6,5.9-5.8,5.9l0,0
				l0,0l0,0C33.7,18.9,31.1,16.2,31.1,13z M957,13c0-3.2,2.6-5.9,5.9-5.9l0,0c3.2,0,5.9,2.6,5.9,5.9l0,0c0,3.2-2.6,5.9-5.9,5.9l0,0
				C959.6,18.9,957,16.2,957,13z M923.9,13c0-3.2,2.6-5.9,5.9-5.9l0,0c3.2,0,5.9,2.6,5.9,5.9l0,0c0,3.2-2.6,5.9-5.9,5.9l0,0
				C926.5,18.9,923.9,16.2,923.9,13z M890.9,13c0-3.2,2.6-5.9,5.9-5.9l0,0c3.2,0,5.9,2.6,5.9,5.9l0,0c0,3.2-2.6,5.9-5.9,5.9l0,0
				C893.5,18.9,890.9,16.2,890.9,13z M857.8,13c0-3.2,2.6-5.9,5.9-5.9l0,0c3.2,0,5.9,2.6,5.9,5.9l0,0c0,3.2-2.6,5.9-5.9,5.9l0,0
				C860.4,18.9,857.8,16.2,857.8,13z M824.7,13c0-3.2,2.6-5.9,5.9-5.9l0,0c3.2,0,5.9,2.6,5.9,5.9l0,0c0,3.2-2.6,5.9-5.9,5.9l0,0
				C827.3,18.9,824.7,16.2,824.7,13z M791.6,13c0-3.2,2.6-5.9,5.9-5.9l0,0c3.2,0,5.9,2.6,5.9,5.9l0,0c0,3.2-2.6,5.9-5.9,5.9l0,0
				C794.3,18.9,791.6,16.2,791.6,13z M758.6,13c0-3.2,2.6-5.9,5.9-5.9l0,0c3.2,0,5.9,2.6,5.9,5.9l0,0c0,3.2-2.6,5.9-5.9,5.9l0,0
				C761.2,18.9,758.6,16.2,758.6,13z M725.5,13c0-3.2,2.6-5.9,5.9-5.9l0,0c3.2,0,5.9,2.6,5.9,5.9l0,0c0,3.2-2.6,5.9-5.9,5.9l0,0
				C728.1,18.9,725.5,16.2,725.5,13z M692.4,13c0-3.2,2.6-5.9,5.9-5.9l0,0c3.2,0,5.9,2.6,5.9,5.9l0,0c0,3.2-2.6,5.9-5.9,5.9l0,0
				C695.1,18.9,692.4,16.2,692.4,13z M659.4,13c0-3.2,2.6-5.9,5.9-5.9l0,0c3.2,0,5.9,2.6,5.9,5.9l0,0c0,3.2-2.6,5.9-5.9,5.9l0,0
				C662,18.9,659.4,16.2,659.4,13z M626.3,13c0-3.2,2.6-5.9,5.9-5.9l0,0c3.2,0,5.9,2.6,5.9,5.9l0,0c0,3.2-2.6,5.9-5.9,5.9l0,0
				C628.9,18.9,626.3,16.2,626.3,13z M593.2,13c0-3.2,2.6-5.9,5.9-5.9l0,0c3.2,0,5.9,2.6,5.9,5.9l0,0c0,3.2-2.6,5.9-5.9,5.9l0,0
				C595.9,18.9,593.2,16.2,593.2,13z M560.2,13c0-3.2,2.6-5.9,5.9-5.9l0,0c3.2,0,5.9,2.6,5.9,5.9l0,0c0,3.2-2.6,5.9-5.9,5.9l0,0
				C562.8,18.9,560.2,16.2,560.2,13z M527.1,13c0-3.2,2.6-5.9,5.9-5.9l0,0c3.2,0,5.9,2.6,5.9,5.9l0,0c0,3.2-2.6,5.9-5.9,5.9l0,0
				C529.7,18.9,527.1,16.2,527.1,13z M494,13c0-3.2,2.6-5.9,5.9-5.9l0,0c3.2,0,5.9,2.6,5.9,5.9l0,0c0,3.2-2.6,5.9-5.9,5.9l0,0
				C496.7,18.9,494,16.2,494,13z M461,13c0-3.2,2.6-5.9,5.9-5.9l0,0c3.2,0,5.9,2.6,5.9,5.9l0,0c0,3.2-2.6,5.9-5.9,5.9l0,0
				C463.6,18.9,461,16.2,461,13z M427.9,13c0-3.2,2.6-5.9,5.9-5.9l0,0c3.2,0,5.9,2.6,5.9,5.9l0,0c0,3.2-2.6,5.9-5.9,5.9l0,0
				C430.5,18.9,427.9,16.2,427.9,13z M394.8,13c0-3.2,2.6-5.9,5.9-5.9l0,0c3.2,0,5.9,2.6,5.9,5.9l0,0c0,3.2-2.6,5.9-5.9,5.9l0,0
				C397.5,18.9,394.8,16.2,394.8,13z M361.8,13c0-3.2,2.6-5.9,5.9-5.9l0,0c3.2,0,5.9,2.6,5.9,5.9l0,0c0,3.2-2.6,5.9-5.9,5.9l0,0
				C364.4,18.9,361.8,16.2,361.8,13z M328.7,13c0-3.2,2.6-5.9,5.9-5.9l0,0c3.2,0,5.9,2.6,5.9,5.9l0,0c0,3.2-2.6,5.9-5.9,5.9l0,0
				C331.3,18.9,328.7,16.2,328.7,13z M295.6,13c0-3.2,2.6-5.9,5.9-5.9l0,0c3.2,0,5.9,2.6,5.9,5.9l0,0c0,3.2-2.6,5.9-5.9,5.9l0,0
				C298.3,18.9,295.6,16.2,295.6,13z M262.6,13c0-3.2,2.6-5.9,5.9-5.9l0,0c3.2,0,5.9,2.6,5.9,5.9l0,0c0,3.2-2.6,5.9-5.9,5.9l0,0
				C265.2,18.9,262.6,16.2,262.6,13z M229.5,13c0-3.2,2.6-5.9,5.9-5.9l0,0c3.2,0,5.9,2.6,5.9,5.9l0,0c0,3.2-2.6,5.9-5.9,5.9l0,0
				C232.1,18.9,229.5,16.2,229.5,13z M196.4,13c0-3.2,2.6-5.9,5.9-5.9l0,0c3.2,0,5.9,2.6,5.9,5.9l0,0c0,3.2-2.6,5.9-5.9,5.9l0,0
				C199,18.9,196.4,16.2,196.4,13z M163.4,13c0-3.2,2.6-5.9,5.9-5.9l0,0c3.2,0,5.9,2.6,5.9,5.9l0,0c0,3.2-2.6,5.9-5.9,5.9l0,0
				C166,18.9,163.4,16.2,163.4,13z M130.3,13c0-3.2,2.6-5.9,5.9-5.9l0,0c3.2,0,5.9,2.6,5.9,5.9l0,0c0,3.2-2.6,5.9-5.9,5.9l0,0
				C132.9,18.9,130.3,16.2,130.3,13z M97.2,13c0-3.2,2.6-5.9,5.9-5.9l0,0c3.2,0,5.9,2.6,5.9,5.9l0,0c0,3.2-2.6,5.9-5.9,5.9l0,0
				C99.8,18.9,97.2,16.2,97.2,13z M64.2,13c0-3.2,2.6-5.9,5.9-5.9l0,0c3.2,0,5.9,2.6,5.9,5.9l0,0c0,3.2-2.6,5.9-5.9,5.9l0,0
				C66.8,18.9,64.2,16.2,64.2,13z"/>
		</g>
	</g>
</g>
</svg>
