<?xml version="1.0" encoding="utf-8"?>
<!-- Generator: Adobe Illustrator 23.1.1, SVG Export Plug-In . SVG Version: 6.00 Build 0)  -->
<svg version="1.1" id="Layer_1" xmlns="http://www.w3.org/2000/svg" xmlns:xlink="http://www.w3.org/1999/xlink" x="0px" y="0px"
	 viewBox="0 0 1077.2 1080" style="enable-background:new 0 0 1077.2 1080;" xml:space="preserve">
<style type="text/css">
	.st0{opacity:0.5;fill:url(#SVGID_1_);}
</style>
<radialGradient id="SVGID_1_" cx="538.6208" cy="539.9797" r="539.3007" gradientUnits="userSpaceOnUse">
	<stop  offset="0" style="stop-color:#FFECA8"/>
	<stop  offset="0.3328" style="stop-color:#FDF3BC;stop-opacity:0.6672"/>
	<stop  offset="0.7127" style="stop-color:#FCF8CD;stop-opacity:0.2873"/>
	<stop  offset="1" style="stop-color:#FBFAD3;stop-opacity:0"/>
</radialGradient>
<path class="st0" d="M543.3,541.1l531.6,73.6c-1.2,8.5-2.6,16.9-4.1,25.3c0,0,0,0.1,0,0.1c-0.1,0.3-0.1,0.5-0.2,0.8
	c0,0.1,0,0.1,0,0.1c0,0.1-0.1,0.3-0.1,0.4c0,0.1,0,0.2,0,0.2c0,0.2-0.1,0.4-0.1,0.7c0,0.1,0,0.2-0.1,0.3c0,0.1,0,0.2-0.1,0.4
	c0,0.2-0.1,0.4-0.1,0.6c0,0.1,0,0.2-0.1,0.3c0,0.2-0.1,0.3-0.1,0.5c0,0.1,0,0.2-0.1,0.3c0,0.2-0.1,0.3-0.1,0.5c0,0.1,0,0.2-0.1,0.3
	c0,0.2-0.1,0.4-0.1,0.6c0,0.1,0,0.1,0,0.2c0,0.2-0.1,0.4-0.1,0.6c0,0,0,0,0,0.1c0,0.2-0.1,0.5-0.1,0.7c0,0.1,0,0.1,0,0.2
	c0,0.2-0.1,0.4-0.1,0.7c0,0.1,0,0.1,0,0.2c0,0.2-0.1,0.4-0.1,0.7c0,0,0,0,0,0.1c-0.1,0.3-0.1,0.5-0.2,0.8c0,0,0,0.1,0,0.1
	c-3.9,18.6-8.7,36.9-14.5,54.8c0,0,0,0,0,0c-0.2,0.5-0.3,1-0.5,1.5c0,0,0,0.1,0,0.1c-0.1,0.2-0.2,0.5-0.2,0.7c0,0,0,0.1,0,0.1
	c-0.2,0.5-0.3,1-0.5,1.4c0,0,0,0.1,0,0.1c-0.1,0.2-0.1,0.5-0.2,0.7c0,0,0,0.1,0,0.1c-0.1,0.2-0.1,0.4-0.2,0.6c0,0,0,0.1,0,0.1
	c-0.1,0.2-0.1,0.4-0.2,0.6c0,0.1-0.1,0.2-0.1,0.2c-0.1,0.2-0.1,0.4-0.2,0.6c0,0.1-0.1,0.2-0.1,0.3c0,0.1-0.1,0.3-0.1,0.4
	c0,0.1-0.1,0.2-0.1,0.3c-0.1,0.2-0.1,0.3-0.2,0.5c0,0.1-0.1,0.2-0.1,0.3c0,0.1-0.1,0.2-0.1,0.3c-0.1,0.2-0.1,0.4-0.2,0.5
	c0,0.1-0.1,0.2-0.1,0.3c-0.1,0.3-0.2,0.5-0.3,0.8l0,0c0,0.1-0.1,0.3-0.1,0.4c0,0,0,0.1-0.1,0.2c-0.1,0.3-0.2,0.5-0.3,0.8
	c0,0,0,0.1,0,0.1c-2.6,7.6-5.4,15.1-8.4,22.5L543.3,541.1z M680.2,1061.6c0.1,0,0.1,0,0.1,0c0.5-0.1,0.9-0.2,1.4-0.4
	c0.1,0,0.1,0,0.2,0c0.2-0.1,0.5-0.1,0.7-0.2c0.1,0,0.2,0,0.3-0.1c0.1,0,0.3-0.1,0.4-0.1c0.2-0.1,0.3-0.1,0.5-0.1
	c0.1,0,0.2-0.1,0.3-0.1c0.1,0,0.2-0.1,0.4-0.1c0.1,0,0.2-0.1,0.4-0.1c0.2,0,0.3-0.1,0.5-0.1c0.1,0,0.2,0,0.3-0.1
	c0.2-0.1,0.4-0.1,0.6-0.2c0.1,0,0.1,0,0.2,0c0.2-0.1,0.4-0.1,0.6-0.2c0.1,0,0.1,0,0.2,0c0.2-0.1,0.4-0.1,0.7-0.2
	c0.1,0,0.1,0,0.2-0.1c0.2-0.1,0.5-0.1,0.7-0.2c0,0,0,0,0,0c0.3-0.1,0.5-0.1,0.7-0.2c0,0,0.1,0,0.1,0c0.2-0.1,0.5-0.1,0.7-0.2
	c0,0,0,0,0,0c0.5-0.2,1-0.3,1.6-0.5l0,0c23.4-6.8,46.2-15.2,68.1-25.1c0,0,0,0,0,0c0.2-0.1,0.5-0.2,0.7-0.3c0,0,0,0,0.1,0
	c0.5-0.2,0.9-0.4,1.4-0.6c0,0,0.1,0,0.1-0.1c0.2-0.1,0.4-0.2,0.7-0.3c0,0,0.1,0,0.1-0.1c0.2-0.1,0.4-0.2,0.6-0.3c0,0,0.1,0,0.1,0
	c0.2-0.1,0.4-0.2,0.6-0.3c0.1,0,0.1-0.1,0.2-0.1c0.2-0.1,0.4-0.2,0.6-0.3c0.1,0,0.1-0.1,0.2-0.1c0.2-0.1,0.3-0.1,0.5-0.2
	c0.1,0,0.1-0.1,0.2-0.1c0.2-0.1,0.4-0.2,0.6-0.3c0.1,0,0.2-0.1,0.3-0.1c0.1-0.1,0.3-0.1,0.4-0.2c0.1-0.1,0.3-0.1,0.4-0.2
	c0.1-0.1,0.2-0.1,0.3-0.2c0.1-0.1,0.2-0.1,0.3-0.2c0.2-0.1,0.3-0.2,0.5-0.2c0.1-0.1,0.2-0.1,0.4-0.2c0.1,0,0.2-0.1,0.2-0.1
	c0.2-0.1,0.4-0.2,0.6-0.3c0,0,0.1-0.1,0.2-0.1c0.1-0.1,0.3-0.1,0.4-0.2c0,0,0,0,0,0c0.3-0.1,0.6-0.3,0.8-0.4c0,0,0,0,0.1,0
	c4.2-2,8.4-4.1,12.6-6.2L541.3,543.5l121,522.6C668.3,1064.7,674.3,1063.2,680.2,1061.6z M540.8,540l1.1-0.7l0.7-0.2l534.6-54
	c-0.4-4.1-0.9-8.1-1.4-12.1c0,0,0,0,0,0c0-0.3-0.1-0.5-0.1-0.8c0,0,0-0.1,0-0.1c0-0.2,0-0.4-0.1-0.6c0-0.1,0-0.2,0-0.3
	c0-0.2,0-0.4-0.1-0.6c0-0.2,0-0.3-0.1-0.5c0-0.1,0-0.1,0-0.2c-0.1-0.7-0.2-1.4-0.3-2.1c-5-37.8-14-74.4-26.5-109.3L543.1,538.9
	l-0.7,0.1l448.3-296.4c-0.2-0.4-0.5-0.7-0.7-1.1l0,0c-0.7-1.1-1.5-2.2-2.3-3.4c0,0,0,0,0,0c-23.3-34.5-50.5-66.2-81-94.4
	L540.6,539.2l0.6-2.4l-0.9,1.6l13-538.3c-1.4,0-2.8-0.1-4.1-0.1l0,0c-0.3,0-0.5,0-0.8,0c-0.1,0-0.1,0-0.1,0c-0.2,0-0.4,0-0.7,0
	c-0.1,0-0.1,0-0.2,0c-0.2,0-0.4,0-0.6,0c-0.1,0-0.2,0-0.3,0c-0.2,0-0.4,0-0.5,0c-0.1,0-0.2,0-0.4,0c-0.2,0-0.3,0-0.5,0
	c-0.1,0-0.3,0-0.4,0c-0.1,0-0.3,0-0.4,0c-0.1,0-0.3,0-0.4,0c-0.1,0-0.3,0-0.4,0c-0.2,0-0.3,0-0.5,0c-0.1,0-0.2,0-0.4,0
	c-0.2,0-0.4,0-0.5,0c-0.1,0-0.2,0-0.3,0c-0.2,0-0.4,0-0.6,0c-0.1,0-0.2,0-0.2,0c-0.3,0-0.6,0-0.9,0c-0.3,0-0.5,0-0.8,0
	c-0.1,0-0.1,0-0.2,0c-0.3,0-0.5,0-0.8,0c0,0,0,0,0,0c-0.2,0-0.5,0-0.7,0c-0.1,0-0.1,0-0.2,0c-0.3,0-0.5,0-0.8,0c0,0-0.1,0-0.1,0
	c-0.2,0-0.5,0-0.7,0c-0.1,0-0.1,0-0.2,0c-0.3,0-0.5,0-0.8,0c0,0-0.1,0-0.1,0c-0.3,0-0.5,0-0.7,0c0,0-0.1,0-0.1,0c-0.3,0-0.5,0-0.8,0
	c0,0-0.1,0-0.1,0c-0.3,0-0.5,0-0.7,0c0,0-0.1,0-0.1,0c-0.3,0-0.5,0-0.8,0c0,0-0.1,0-0.1,0c-0.3,0-0.5,0-0.8,0c0,0,0,0,0,0
	c-0.3,0-0.6,0-0.8,0c0,0-0.1,0-0.1,0c-0.3,0-0.5,0-0.8,0c0,0,0,0,0,0c-0.3,0-0.6,0-0.8,0c0,0-0.1,0-0.1,0c-0.6,0-1.1,0-1.7,0
	c0,0,0,0-0.1,0c-0.6,0-1.1,0-1.7,0c0,0,0,0,0,0c-0.6,0-1.1,0-1.7,0.1l0,0c-14.5,0.5-28.7,1.5-42.9,3.1c0,0,0,0,0,0
	c-0.3,0-0.5,0.1-0.8,0.1c0,0,0,0-0.1,0c-0.2,0-0.5,0.1-0.7,0.1c0,0-0.1,0-0.1,0c-0.2,0-0.5,0.1-0.8,0.1c-0.1,0-0.1,0-0.2,0
	c-0.2,0-0.4,0-0.6,0.1c-0.1,0-0.1,0-0.2,0c-0.2,0-0.4,0.1-0.7,0.1c-0.1,0-0.2,0-0.3,0c-0.2,0-0.3,0-0.4,0.1c-0.2,0-0.3,0-0.5,0.1
	c-0.1,0-0.3,0-0.4,0.1c-0.1,0-0.3,0-0.4,0.1c-0.1,0-0.2,0-0.2,0c-0.3,0-0.6,0.1-0.9,0.1c0,0,0,0-0.1,0c-0.2,0-0.4,0-0.5,0.1l0,0
	c-1.3,0.2-2.6,0.3-3.9,0.5c-1.5,0.2-3,0.4-4.5,0.6c0,0,0,0-0.1,0c-0.3,0-0.5,0.1-0.8,0.1c-0.1,0-0.2,0-0.2,0c-0.2,0-0.4,0.1-0.6,0.1
	c-0.1,0-0.2,0-0.3,0c-0.2,0-0.4,0.1-0.6,0.1c-0.1,0-0.2,0-0.4,0.1c-0.2,0-0.3,0-0.5,0.1c-0.1,0-0.3,0-0.4,0.1c-0.1,0-0.3,0-0.4,0.1
	c-0.2,0-0.3,0-0.5,0.1c-0.1,0-0.2,0-0.4,0.1c-0.2,0-0.3,0.1-0.5,0.1c-0.1,0-0.2,0-0.3,0c-0.2,0-0.4,0.1-0.6,0.1c0,0-0.1,0-0.1,0
	c-10.8,1.7-21.6,3.7-32.2,6c0,0-0.1,0-0.1,0c-0.2,0-0.5,0.1-0.7,0.1c-0.1,0-0.1,0-0.2,0c-0.2,0-0.4,0.1-0.6,0.1
	c-0.1,0-0.2,0-0.3,0.1c-0.2,0-0.4,0.1-0.6,0.1c-0.1,0-0.2,0-0.3,0.1c-0.2,0-0.3,0.1-0.5,0.1c-0.1,0-0.3,0.1-0.4,0.1
	c-0.1,0-0.3,0.1-0.4,0.1c-0.2,0-0.3,0.1-0.5,0.1c-0.1,0-0.2,0.1-0.4,0.1c-0.2,0-0.4,0.1-0.6,0.1c-0.1,0-0.2,0-0.2,0.1
	c-0.3,0.1-0.5,0.1-0.8,0.2c0,0,0,0-0.1,0c-2.3,0.5-4.6,1.1-7,1.7l127.5,521.1L289.9,61.3c-1.1,0.6-2.2,1.2-3.3,1.8
	c0,0-0.1,0-0.1,0.1c-0.1,0.1-0.3,0.1-0.4,0.2c-0.1,0-0.2,0.1-0.3,0.1c-0.2,0.1-0.4,0.2-0.5,0.3c-0.1,0.1-0.2,0.1-0.4,0.2
	c-0.1,0-0.2,0.1-0.3,0.1c-0.2,0.1-0.4,0.2-0.6,0.3c0,0,0,0,0,0c-0.2,0.1-0.4,0.2-0.6,0.3c0,0-0.1,0-0.1,0.1
	c-11.2,6.1-22.2,12.5-33,19.4c0,0,0,0,0,0c-0.2,0.1-0.4,0.3-0.6,0.4c-0.1,0-0.1,0.1-0.2,0.1c-0.1,0.1-0.3,0.2-0.4,0.3
	c-0.1,0.1-0.2,0.1-0.3,0.2c-0.1,0.1-0.3,0.2-0.4,0.2c-0.1,0.1-0.2,0.1-0.3,0.2c-0.1,0.1-0.2,0.1-0.3,0.2c-0.1,0.1-0.2,0.1-0.3,0.2
	c-0.1,0.1-0.2,0.1-0.3,0.2c-0.1,0.1-0.2,0.2-0.4,0.2c-0.1,0.1-0.2,0.1-0.3,0.2c-0.1,0.1-0.3,0.2-0.4,0.3c-0.1,0-0.1,0.1-0.2,0.1
	c-0.2,0.1-0.3,0.2-0.5,0.3c0,0-0.1,0.1-0.1,0.1c-1.2,0.8-2.4,1.6-3.6,2.4c0,0,0,0,0,0c-0.2,0.1-0.4,0.3-0.6,0.4c0,0,0,0,0,0
	c-0.2,0.1-0.4,0.3-0.6,0.4l0,0c-0.2,0.1-0.4,0.3-0.6,0.4l0,0c-6.8,4.5-13.4,9.2-20,14l0,0c-2.2,1.6-4.3,3.2-6.5,4.9l0,0
	c-0.2,0.1-0.4,0.3-0.6,0.4l0,0c-10.2,7.8-20.1,15.9-29.7,24.4l356.1,403.9l0.1,0.5l-1.4-0.2L96.7,231.5
	c-24.6,35.3-45.1,73.7-60.8,114.5l501,192.8L4.3,471.8c0,0,0,0.1,0,0.1c0,0.1,0,0.2,0,0.2c0,0.2,0,0.4-0.1,0.5c0,0.1,0,0.3,0,0.4
	c0,0.1,0,0.3-0.1,0.4c0,0.1,0,0.2,0,0.4c0,0.1,0,0.3-0.1,0.4c0,0.2,0,0.4-0.1,0.5c0,0.1,0,0.2,0,0.3c0,0.3-0.1,0.5-0.1,0.8
	c0,0.1,0,0.1,0,0.2c0,0.2,0,0.3-0.1,0.5l0,0c0,0.3-0.1,0.7-0.1,1c0,0,0,0,0,0c-1.3,11.5-2.3,23.2-2.9,34.9l0,0c0,0.4,0,0.7-0.1,1.1
	c0,0,0,0,0,0c0,0.5,0,1-0.1,1.5c0,0,0,0.1,0,0.1c0,0.3,0,0.7,0,1l0,0c0,0.2,0,0.3,0,0.5c0,0.1,0,0.1,0,0.2c0,0.3,0,0.5,0,0.8
	c0,0.1,0,0.2,0,0.2c0,0.1,0,0.3,0,0.4c0,0.1,0,0.2,0,0.3c0,0.2,0,0.5,0,0.7c0,0.1,0,0.2,0,0.3c0,0.2,0,0.4,0,0.6c0,0.1,0,0.2,0,0.4
	c0,0.1,0,0.3,0,0.4c0,0.1,0,0.3,0,0.4c0,0.2,0,0.3,0,0.5c0,0.1,0,0.3,0,0.4c0,0.1,0,0.2,0,0.3c0,0.2,0,0.4,0,0.6c0,0.1,0,0.2,0,0.3
	c0,0.1,0,0.3,0,0.4c0,0.1,0,0.3,0,0.4c0,0.2,0,0.3,0,0.5c0,0.1,0,0.2,0,0.3c0,0.2,0,0.4,0,0.6c0,0.1,0,0.2,0,0.3c0,0.2,0,0.3,0,0.5
	c0,0.1,0,0.2,0,0.3c0,0.2,0,0.4,0,0.7c0,0.1,0,0.2,0,0.3c0,0.2,0,0.4,0,0.6c0,0.1,0,0.2,0,0.2c0,0.2,0,0.4,0,0.6c0,0.1,0,0.2,0,0.2
	c0,0.2,0,0.5,0,0.7c0,0.1,0,0.1,0,0.2c0,0.2,0,0.4,0,0.6c0,0.1,0,0.1,0,0.2c0,0.2,0,0.5,0,0.7c0,0.1,0,0.1,0,0.2c0,0.2,0,0.5,0,0.7
	c0,0,0,0.1,0,0.1c0,0.2,0,0.4,0,0.7c0,0.1,0,0.1,0,0.2c0,0.3,0,0.5,0,0.7c0,0.1,0,0.1,0,0.2c0,0.2,0,0.5,0,0.7c0,0,0,0.1,0,0.1
	c0,0.3,0,0.5,0,0.8c0,0.1,0,0.1,0,0.2c0,0.2,0,0.5,0,0.8c0,0,0,0.1,0,0.1c0,0.2,0,0.5,0,0.7c0,0,0,0.1,0,0.1c0,0.3,0,0.5,0,0.8
	c0,0.1,0,0.1,0,0.2c0,0.3,0,0.5,0,0.8c0,0.3,0,0.5,0,0.8c0,0,0,0.1,0,0.1c0,0.3,0,0.5,0,0.8c0,0,0,0.1,0,0.1c0,0.3,0,0.5,0,0.8
	c0,0,0,0.1,0,0.1c0,0.3,0,0.5,0,0.8c0,0,0,0.1,0,0.1c0,0.3,0,0.5,0,0.8c0,0,0,0,0,0c0,0.3,0,0.5,0,0.8c0,0,0,0.1,0,0.1
	c0,0.3,0,0.5,0,0.8c0,0,0,0.1,0,0.1c0,0.3,0,0.5,0,0.8c0,0,0,0.1,0,0.1c0,0.9,0,1.7,0,2.6v0c0,0.3,0,0.6,0,0.8c0,0,0,0,0,0
	c0.3,16.8,1.4,33.4,3.2,49.8c0,0,0,0,0,0c0,0.3,0.1,0.5,0.1,0.8c0,0,0,0,0,0c0,0.1,0,0.3,0,0.4L537.1,541L33.5,727.7
	c12.1,32.6,27.3,63.8,45.2,93.1L537.4,541l1.8-0.2l-0.1,0.4L178.1,940.8c0.8,0.7,1.6,1.4,2.3,2.1c0,0,0,0,0,0
	c0.2,0.2,0.4,0.3,0.5,0.5c0,0,0,0,0,0c0.2,0.1,0.3,0.3,0.5,0.4c0,0,0.1,0.1,0.1,0.1c0.1,0.1,0.3,0.3,0.4,0.4
	c0.1,0.1,0.1,0.1,0.2,0.1c0.1,0.1,0.3,0.2,0.4,0.4c0.1,0.1,0.1,0.1,0.2,0.2c0.1,0.1,0.3,0.2,0.4,0.4c0.1,0.1,0.1,0.1,0.2,0.2
	c0.1,0.1,0.3,0.2,0.4,0.3c0.1,0.1,0.1,0.1,0.2,0.2c0.1,0.1,0.2,0.2,0.4,0.3c0.1,0.1,0.2,0.1,0.2,0.2c0.1,0.1,0.2,0.2,0.4,0.3
	c0.1,0.1,0.2,0.1,0.3,0.2c0.1,0.1,0.2,0.2,0.3,0.3c0.1,0.1,0.2,0.1,0.3,0.2c0.1,0.1,0.2,0.2,0.3,0.3c0.1,0.1,0.2,0.2,0.3,0.2
	c0.1,0.1,0.2,0.2,0.3,0.3c0.1,0.1,0.2,0.1,0.3,0.2c0.1,0.1,0.2,0.2,0.3,0.3c0.1,0.1,0.2,0.2,0.3,0.3c0.1,0.1,0.2,0.2,0.3,0.3
	c0.1,0.1,0.2,0.2,0.3,0.3c0.1,0.1,0.2,0.2,0.3,0.3c0.1,0.1,0.2,0.2,0.3,0.3c0.1,0.1,0.2,0.2,0.3,0.3c0.1,0.1,0.2,0.2,0.3,0.3
	c0.1,0.1,0.2,0.2,0.3,0.2c0.1,0.1,0.2,0.2,0.3,0.3c0.1,0.1,0.2,0.2,0.3,0.2c0.1,0.1,0.2,0.2,0.3,0.3c0.1,0.1,0.2,0.2,0.3,0.2
	c0.1,0.1,0.2,0.2,0.3,0.3c0.1,0.1,0.2,0.2,0.3,0.3c0.1,0.1,0.2,0.2,0.3,0.3c0.1,0.1,0.2,0.2,0.3,0.2c0.1,0.1,0.2,0.2,0.3,0.3
	c0.1,0.1,0.2,0.1,0.3,0.2c0.1,0.1,0.2,0.2,0.3,0.3c0.1,0.1,0.2,0.2,0.3,0.2c0.1,0.1,0.2,0.2,0.3,0.3c0.1,0.1,0.2,0.2,0.3,0.2
	c0.1,0.1,0.2,0.2,0.3,0.3c0.1,0.1,0.2,0.2,0.3,0.2c0.1,0.1,0.2,0.2,0.3,0.3c0.1,0.1,0.2,0.2,0.3,0.3c0.1,0.1,0.2,0.2,0.3,0.2
	c0.1,0.1,0.2,0.2,0.3,0.3c0.1,0.1,0.2,0.2,0.3,0.2c0.1,0.1,0.2,0.2,0.3,0.3c0.1,0.1,0.2,0.2,0.3,0.3c0.1,0.1,0.2,0.2,0.3,0.2
	c0.1,0.1,0.2,0.2,0.3,0.3c0.1,0.1,0.2,0.2,0.3,0.2c0.1,0.1,0.2,0.2,0.3,0.3c0.1,0.1,0.2,0.2,0.3,0.2c0.1,0.1,0.2,0.2,0.3,0.3
	c0.1,0.1,0.2,0.2,0.3,0.3c0.1,0.1,0.2,0.2,0.3,0.2c0.1,0.1,0.2,0.2,0.3,0.3c0.1,0.1,0.2,0.2,0.3,0.2c0.1,0.1,0.2,0.2,0.3,0.3
	c0.1,0.1,0.2,0.1,0.3,0.2c0.1,0.1,0.2,0.2,0.4,0.3c0.1,0.1,0.1,0.1,0.2,0.2c0.3,0.3,0.7,0.5,1,0.8c0,0,0,0,0.1,0
	c0.2,0.2,0.4,0.3,0.6,0.5c0,0,0,0,0.1,0c0.2,0.1,0.3,0.3,0.5,0.4c0,0,0.1,0.1,0.1,0.1c0.2,0.1,0.3,0.3,0.5,0.4c0,0,0.1,0,0.1,0.1
	c0.1,0.1,0.3,0.2,0.4,0.3c0.1,0.1,0.1,0.1,0.2,0.2c0.1,0.1,0.3,0.2,0.4,0.4c0.1,0,0.1,0.1,0.2,0.1c0.1,0.1,0.3,0.2,0.4,0.3
	c0.1,0.1,0.1,0.1,0.2,0.2c0.2,0.1,0.3,0.2,0.5,0.4c0.1,0,0.1,0.1,0.2,0.1c0.1,0.1,0.3,0.2,0.4,0.3c0.1,0.1,0.1,0.1,0.2,0.2
	c0.1,0.1,0.3,0.2,0.4,0.3c0.1,0.1,0.1,0.1,0.2,0.2c0.1,0.1,0.3,0.2,0.4,0.3c0.1,0.1,0.2,0.1,0.2,0.2c0.1,0.1,0.3,0.2,0.4,0.3
	c0.1,0.1,0.1,0.1,0.2,0.2c0.1,0.1,0.3,0.2,0.4,0.3c0.1,0.1,0.1,0.1,0.2,0.2c0.1,0.1,0.3,0.2,0.4,0.3c0.1,0.1,0.1,0.1,0.2,0.1
	c0.1,0.1,0.3,0.2,0.4,0.3c0.1,0.1,0.1,0.1,0.2,0.1c0.1,0.1,0.3,0.2,0.4,0.3c0.1,0.1,0.1,0.1,0.2,0.1c0.2,0.1,0.3,0.2,0.5,0.3
	c0.1,0.1,0.1,0.1,0.2,0.1c0.1,0.1,0.3,0.2,0.4,0.3c0.1,0,0.1,0.1,0.2,0.1c0.2,0.1,0.3,0.2,0.5,0.4c0.1,0.1,0.1,0.1,0.2,0.1
	c0.2,0.1,0.3,0.2,0.5,0.4c0.1,0,0.1,0.1,0.2,0.1c0.2,0.1,0.3,0.2,0.5,0.4c0.1,0,0.1,0.1,0.2,0.1c0.2,0.1,0.3,0.2,0.5,0.4
	c0,0,0.1,0.1,0.1,0.1c0.2,0.1,0.3,0.3,0.5,0.4c0,0,0.1,0.1,0.1,0.1c0.2,0.1,0.3,0.3,0.5,0.4c0,0,0.1,0.1,0.1,0.1
	c0.2,0.1,0.3,0.3,0.5,0.4c0,0,0.1,0.1,0.1,0.1c0.2,0.1,0.4,0.3,0.5,0.4c0,0,0.1,0,0.1,0.1c0.2,0.1,0.4,0.3,0.5,0.4
	c0,0,0.1,0.1,0.1,0.1c0.2,0.1,0.4,0.3,0.5,0.4c0,0,0.1,0,0.1,0.1c0.2,0.1,0.4,0.3,0.6,0.4c0,0,0,0,0.1,0.1c0.2,0.1,0.4,0.3,0.6,0.4
	c0,0,0,0,0,0c0.2,0.1,0.4,0.3,0.6,0.4c0,0,0,0,0,0c4.5,3.3,9,6.5,13.5,9.6l0,0c0.2,0.1,0.4,0.3,0.6,0.4c0,0,0,0,0.1,0
	c0.2,0.1,0.4,0.3,0.6,0.4c0,0,0.1,0,0.1,0.1c0.2,0.1,0.4,0.2,0.5,0.4c0,0,0.1,0.1,0.1,0.1c0.2,0.1,0.4,0.2,0.5,0.4
	c0,0,0.1,0.1,0.1,0.1c0.2,0.1,0.3,0.2,0.5,0.4c0,0,0.1,0.1,0.1,0.1c0.2,0.1,0.3,0.2,0.5,0.3c0.1,0,0.1,0.1,0.1,0.1
	c0.2,0.1,0.3,0.2,0.5,0.3c0.1,0,0.1,0.1,0.2,0.1c0.2,0.1,0.3,0.2,0.5,0.3c0.1,0,0.1,0.1,0.2,0.1c0.2,0.1,0.3,0.2,0.5,0.3
	c0.1,0,0.2,0.1,0.2,0.2c0.1,0.1,0.3,0.2,0.4,0.3c0.1,0.1,0.1,0.1,0.2,0.2c0.1,0.1,0.3,0.2,0.4,0.3c0.1,0.1,0.2,0.1,0.3,0.2
	c0.1,0.1,0.3,0.2,0.4,0.3c0.1,0.1,0.2,0.1,0.3,0.2c0.1,0.1,0.3,0.2,0.4,0.3c0.1,0.1,0.2,0.1,0.3,0.2c0.1,0.1,0.2,0.2,0.4,0.2
	c0.1,0.1,0.2,0.1,0.3,0.2c0.1,0.1,0.2,0.1,0.3,0.2c0.1,0.1,0.2,0.2,0.4,0.2c0.1,0.1,0.2,0.1,0.3,0.2c0.1,0.1,0.3,0.2,0.4,0.3
	c0.1,0.1,0.2,0.1,0.3,0.2c0.1,0.1,0.3,0.2,0.4,0.3c0.1,0.1,0.2,0.1,0.2,0.2c0.2,0.1,0.3,0.2,0.5,0.3c0.1,0,0.1,0.1,0.2,0.1
	c0.2,0.1,0.3,0.2,0.5,0.3c0.1,0,0.1,0.1,0.2,0.1c0.2,0.1,0.4,0.2,0.6,0.4c0,0,0.1,0,0.1,0.1c0.2,0.1,0.4,0.3,0.6,0.4
	c0,0,0.1,0,0.1,0c3.4,2.2,6.8,4.3,10.2,6.4l279.7-458.5l-134.1,520.1c6,1.5,12.1,3,18.1,4.3c0,0,0.1,0,0.1,0
	c0.3,0.1,0.5,0.1,0.7,0.2c0,0,0.1,0,0.1,0c0.2,0,0.4,0.1,0.6,0.1c0.1,0,0.1,0,0.2,0c0.2,0,0.4,0.1,0.6,0.1c0.1,0,0.2,0,0.3,0.1
	c0.2,0,0.4,0.1,0.6,0.1c0.1,0,0.2,0,0.3,0.1c0.1,0,0.3,0.1,0.4,0.1c0.1,0,0.3,0.1,0.4,0.1c0.1,0,0.3,0.1,0.4,0.1
	c0.1,0,0.3,0.1,0.4,0.1c0.1,0,0.2,0,0.3,0.1c0.2,0,0.5,0.1,0.7,0.1c0.1,0,0.1,0,0.2,0c12.7,2.7,25.6,4.9,38.7,6.6
	c17.2,2.3,34.8,3.8,52.5,4.4c0,0,0,0,0.1,0c0.3,0,0.6,0,0.9,0c0.1,0,0.1,0,0.2,0c0.2,0,0.3,0,0.5,0c0.1,0,0.2,0,0.3,0
	c0.2,0,0.4,0,0.6,0c0.1,0,0.2,0,0.4,0c0.1,0,0.3,0,0.4,0c0.2,0,0.4,0,0.5,0c0.1,0,0.2,0,0.3,0c0.2,0,0.5,0,0.7,0c0.1,0,0.1,0,0.2,0
	c0.5,0,1.1,0,1.6,0c0,0,0,0,0,0c2.1,0.1,4.3,0.1,6.4,0.1l6.5-538.7l0.2-0.3l1.3,2.5l-0.5-2.2l351.1,408.3c0,0,0.1-0.1,0.1-0.1
	c0.1-0.1,0.2-0.2,0.4-0.3c0.1-0.1,0.2-0.2,0.3-0.3c0.2-0.2,0.4-0.4,0.6-0.6c0.1-0.1,0.2-0.2,0.3-0.3c0.1-0.1,0.3-0.2,0.4-0.3
	c0.1-0.1,0.2-0.2,0.3-0.3c0.1-0.1,0.2-0.2,0.4-0.3c0.1-0.1,0.2-0.2,0.3-0.3c0.1-0.1,0.3-0.2,0.4-0.4c0.1-0.1,0.2-0.2,0.3-0.2
	c0.2-0.2,0.4-0.4,0.7-0.6c0.1-0.1,0.2-0.2,0.3-0.2c0.1-0.1,0.3-0.2,0.4-0.4c0.1-0.1,0.2-0.2,0.3-0.3c0.1-0.1,0.2-0.2,0.4-0.3
	c0.1-0.1,0.2-0.2,0.3-0.3c0.1-0.1,0.3-0.2,0.4-0.4c0.1-0.1,0.2-0.2,0.3-0.3c0.2-0.2,0.4-0.4,0.6-0.6c0.1-0.1,0.2-0.2,0.3-0.3
	c0.1-0.1,0.3-0.2,0.4-0.4c0.1-0.1,0.2-0.2,0.3-0.3c0.1-0.1,0.3-0.2,0.4-0.3c0.1-0.1,0.2-0.2,0.3-0.3c0.1-0.1,0.3-0.2,0.4-0.4
	c0.1-0.1,0.2-0.1,0.3-0.2c0.2-0.2,0.4-0.4,0.6-0.6c0.1-0.1,0.2-0.2,0.2-0.2c0.1-0.1,0.3-0.3,0.4-0.4c0.1-0.1,0.2-0.2,0.3-0.3
	c0.1-0.1,0.3-0.2,0.4-0.4c0.1-0.1,0.2-0.2,0.3-0.3c0.1-0.1,0.3-0.3,0.4-0.4c0.1-0.1,0.2-0.1,0.2-0.2c0.2-0.2,0.4-0.4,0.6-0.6
	c0.1-0.1,0.2-0.1,0.2-0.2c0.1-0.1,0.3-0.3,0.5-0.4c0.1-0.1,0.2-0.2,0.3-0.2c0.1-0.1,0.3-0.3,0.4-0.4c0.1-0.1,0.2-0.2,0.3-0.2
	c0.2-0.2,0.3-0.3,0.5-0.5c0,0,0.1-0.1,0.1-0.1c0.2-0.2,0.4-0.4,0.7-0.6c0.1-0.1,0.1-0.1,0.2-0.2c0.2-0.1,0.3-0.3,0.5-0.4
	c0.1-0.1,0.2-0.2,0.2-0.2c0.1-0.1,0.3-0.3,0.4-0.4c0.1-0.1,0.2-0.2,0.2-0.2c0.2-0.2,0.4-0.3,0.5-0.5c0,0,0.1-0.1,0.1-0.1
	c0.2-0.2,0.4-0.4,0.7-0.6c0.1-0.1,0.1-0.1,0.2-0.2c0.2-0.2,0.3-0.3,0.5-0.5c0.1-0.1,0.1-0.1,0.2-0.2c0.2-0.2,0.3-0.3,0.5-0.5
	c0.1-0.1,0.1-0.1,0.2-0.2c0.2-0.2,0.4-0.4,0.6-0.6c0,0,0,0,0,0c0.2-0.2,0.5-0.4,0.7-0.7c0,0,0.1-0.1,0.2-0.2
	c0.2-0.2,0.4-0.3,0.5-0.5c0.1-0.1,0.1-0.1,0.2-0.2c0.2-0.2,0.3-0.3,0.5-0.5c0.1-0.1,0.1-0.1,0.2-0.2c0.5-0.4,0.9-0.9,1.4-1.3
	c0,0,0.1-0.1,0.1-0.1c0.2-0.2,0.4-0.4,0.6-0.6c0.1-0.1,0.1-0.1,0.2-0.1c0.2-0.2,0.4-0.4,0.6-0.5c0,0,0.1-0.1,0.1-0.1
	c0.5-0.5,0.9-0.9,1.4-1.4c0,0,0,0,0.1-0.1c0.2-0.2,0.4-0.4,0.6-0.6c0,0,0.1-0.1,0.1-0.1c0.2-0.2,0.4-0.4,0.6-0.6c0,0,0,0,0.1-0.1
	c0.5-0.5,0.9-0.9,1.4-1.4c0,0,0,0,0,0c0.2-0.2,0.4-0.4,0.7-0.7c0,0,0.1-0.1,0.1-0.1c0.2-0.2,0.4-0.4,0.6-0.7c0,0,0,0,0,0
	c0.5-0.5,0.9-1,1.4-1.4l0,0c0.2-0.2,0.4-0.5,0.7-0.7c0,0,0,0,0.1-0.1c0.2-0.2,0.5-0.5,0.7-0.7l0,0c0.7-0.7,1.4-1.4,2.1-2.2
	c0,0,0,0,0,0c18-18.8,34.7-38.9,49.9-60.1L542.2,541l1.2,0.2l-2.1-0.8L540.8,540z M754,44.1L754,44.1c-0.3-0.1-0.5-0.2-0.7-0.3
	c0,0,0,0,0,0c-0.5-0.2-1-0.4-1.4-0.6c0,0-0.1,0-0.1,0c-0.2-0.1-0.5-0.2-0.7-0.3c0,0,0,0,0,0c-0.2-0.1-0.4-0.2-0.6-0.3
	c0,0-0.1,0-0.1-0.1c-0.2-0.1-0.4-0.2-0.6-0.3c-0.1,0-0.1,0-0.2-0.1c-0.2-0.1-0.4-0.2-0.6-0.3c0,0-0.1,0-0.1,0
	c-0.2-0.1-0.4-0.2-0.6-0.2c-0.1,0-0.1,0-0.2-0.1c-0.2-0.1-0.4-0.2-0.6-0.3c-0.1,0-0.1-0.1-0.2-0.1c-0.2-0.1-0.4-0.1-0.5-0.2
	c-0.1,0-0.1,0-0.2-0.1c-0.2-0.1-0.4-0.2-0.6-0.2c-0.1,0-0.2-0.1-0.2-0.1c-0.2-0.1-0.4-0.2-0.6-0.2c-0.1,0-0.2-0.1-0.2-0.1
	c-0.1-0.1-0.3-0.1-0.4-0.2c-0.1,0-0.2-0.1-0.3-0.1c-0.2-0.1-0.4-0.2-0.5-0.2c-0.1,0-0.2-0.1-0.3-0.1c-0.1-0.1-0.2-0.1-0.4-0.2
	c-0.2-0.1-0.3-0.1-0.5-0.2c-0.1,0-0.2-0.1-0.3-0.1c-0.1,0-0.2-0.1-0.3-0.1c-0.1,0-0.2-0.1-0.3-0.1c-0.2-0.1-0.4-0.2-0.6-0.2
	c-0.1,0-0.1-0.1-0.2-0.1c-0.2-0.1-0.4-0.2-0.7-0.3c-0.1,0-0.1-0.1-0.2-0.1c-0.1-0.1-0.3-0.1-0.4-0.2c0,0-0.1,0-0.1,0
	c-0.3-0.1-0.5-0.2-0.8-0.3c0,0-0.1,0-0.1,0c-0.5-0.2-0.9-0.4-1.4-0.5c0,0-0.1,0-0.1,0c-0.3-0.1-0.6-0.2-0.9-0.3c0,0,0,0-0.1,0
	c-17.7-6.9-35.8-12.9-54.3-17.9L541.2,536.8L801.8,67.6C786.3,59,770.4,51.1,754,44.1z"/>
</svg>
