<?xml version="1.0" encoding="utf-8"?>
<!-- Generator: Adobe Illustrator 23.1.1, SVG Export Plug-In . SVG Version: 6.00 Build 0)  -->
<svg version="1.1" id="Layer_1" xmlns="http://www.w3.org/2000/svg" xmlns:xlink="http://www.w3.org/1999/xlink" x="0px" y="0px"
	 viewBox="0 0 1024 1024" style="enable-background:new 0 0 1024 1024;" xml:space="preserve">
<style type="text/css">
	.st0{fill:url(#SVGID_1_);}
	.st1{opacity:0.2;}
	.st2{fill:#804200;}
	.st3{fill:#FFC107;}
</style>
<linearGradient id="SVGID_1_" gradientUnits="userSpaceOnUse" x1="1085.937" y1="180.6373" x2="-61.937" y2="843.3627">
	<stop  offset="1.322751e-03" style="stop-color:#FF462D"/>
	<stop  offset="0.2619" style="stop-color:#FF422F"/>
	<stop  offset="0.526" style="stop-color:#FF3634"/>
	<stop  offset="0.7908" style="stop-color:#FF223C"/>
	<stop  offset="1" style="stop-color:#FF0C45"/>
</linearGradient>
<path class="st0" d="M924,1024H100C45,1024,0,979,0,924V100C0,45,45,0,100,0h824c55,0,100,45,100,100v824
	C1024,979,979,1024,924,1024z"/>
<g>
	<g class="st1">
		<path class="st2" d="M880.2,443.1c-4.6-14.2-17.2-24.2-32-25.6l-202-18.3l-79.9-187c-5.9-13.7-19.3-22.6-34.2-22.6
			s-28.3,8.9-34.2,22.6l-79.9,187l-202.1,18.3c-14.8,1.4-27.4,11.4-32,25.6s-0.4,29.7,10.9,39.5l152.7,133.9l-45,198.4
			c-3.3,14.6,2.4,29.7,14.5,38.4c6.5,4.7,14.1,7.1,21.8,7.1c6.6,0,13.2-1.8,19.1-5.3L532,750.9l174.2,104.2
			c12.7,7.7,28.8,7,40.9-1.8c12.1-8.8,17.8-23.9,14.5-38.4l-45-198.4l152.7-133.9C880.5,472.8,884.8,457.3,880.2,443.1z"/>
	</g>
	<g>
		<path class="st3" d="M860.2,430.1c-4.6-14.2-17.2-24.2-32-25.6l-202-18.3l-79.9-187c-5.9-13.7-19.3-22.6-34.2-22.6
			s-28.3,8.9-34.2,22.6l-79.9,187l-202.1,18.3c-14.8,1.4-27.4,11.4-32,25.6s-0.4,29.7,10.9,39.5l152.7,133.9l-45,198.4
			c-3.3,14.6,2.4,29.7,14.5,38.4c6.5,4.7,14.1,7.1,21.8,7.1c6.6,0,13.2-1.8,19.1-5.3L512,737.9l174.2,104.2
			c12.7,7.7,28.8,7,40.9-1.8c12.1-8.8,17.8-23.9,14.5-38.4l-45-198.4l152.7-133.9C860.5,459.8,864.8,444.3,860.2,430.1z"/>
	</g>
</g>
</svg>
